{"title":"Shriyut Gangadhar Tipre Marathi Full Series Episodes","uid":12444683,"size":20175306260,"categoryP":"video","categoryS":"tv_shows","magnet":"?xt=urn:btih:0dd5190ebd0195ab061fe92fe0d446ec602e6991&amp;dn=Shriyut+Gangadhar+Tipre+Marathi+Full+Series+Episodes&amp;tr=udp%3A%2F%2Ftracker.openbittorrent.com%3A80&amp;tr=udp%3A%2F%2Fopen.demonii.com%3A1337&amp;tr=udp%3A%2F%2Ftracker.coppersurfer.tk%3A6969&amp;tr=udp%3A%2F%2Fexodus.desync.com%3A6969","seeders":0,"leechers":3,"uploader":"vikeam","files":161,"time":1442616296,"description":"A Very Famous Marathi Serial Directed By Mr. Kedar Shinde &amp; Written By Mr. Dilip Prabhavalkar\n\nCasting :: Dilip Prabhavalkar As AABA\nRajan Bhise\nShubhangi Gokhale\nReshma Naik\nVikas Kadam As Shiryaaa\nMukta Barve\n\nThis torrent contains all the Episodes....\n\nMedia Information General\nFormat : MPEG-4\nFormat profile : Base Media\nCodec ID : isom\nFile size : 113 MiB\nDuration : 23mn 14s\nOverall bit rate : 678 Kbps\nWriting application : Lavf54.63.104\nVideo #1\nID : 1\nFormat : AVC\nFormat/Info : Advanced Video Codec\nFormat profile : &lt;a class=&quot;__cf_email__&quot; href=&quot;/cdn-cgi/l/email-protection&quot; data-cfemail=&quot;074a666e69474b342937&quot;&gt;[email&amp;#160;protected]&lt;/a&gt;&lt;script data-cfhash='f9e31' type=&quot;text/javascript&quot;&gt;\n/* &lt;![CDATA[ */!function(){try{var t=&quot;currentScript&quot;in document?document.currentScript:function(){for(var t=document.getElementsByTagName(&quot;script&quot;),e=t.length;e--;)if(t[e].getAttribute(&quot;data-cfhash&quot;))return t[e]}();if(t&amp;&amp;t.previousSibling){var e,r,n,i,c=t.previousSibling,a=c.getAttribute(&quot;data-cfemail&quot;);if(a){for(e=&quot;&quot;,r=parseInt(a.substr(0,2),16),n=2;a.length-n;n+=2)i=parseInt(a.substr(n,2),16)^r,e+=String.fromCharCode(i);e=document.createTextNode(e),c.parentNode.replaceChild(e,c)}t.parentNode.removeChild(t);}}catch(u){}}()/* ]]&gt; */&lt;/script&gt;\nFormat settings, CABAC : Yes\nFormat settings, ReFrames : 3 frames\nCodec ID : avc1\nCodec ID/Info : Advanced Video Coding\nDuration : 23mn 13s\nBit rate : 546 Kbps\nWidth : 640 pixels\nHeight : 480 pixels\nDisplay aspect ratio : 4:3\nFrame rate mode : Constant\nFrame rate : 25.000 fps\nColor space : YUV\nChroma subsampling : 4:2:0\nBit depth : 8 bits\nScan type : Progressive\nBits/(Pixel*Frame) : 0.071\nStream size : 90.8 MiB (81%)\nAudio #2\nID : 2\nFormat : AAC\nFormat/Info : Advanced Audio Codec\nFormat profile : LC\nCodec ID : 40\nDuration : 23mn 14s\nBit rate mode : Constant\nBit rate : 126 Kbps\nChannel(s) : 2 channels\nChannel positions : Front: L R\nSampling rate : 44.1 KHz\nCompression mode : Lossy\nDelay relative to video : 40ms\nStream size : 20.9 MiB (19%)\n\nEnjoyy","torrent":{"xt":"urn:btih:0dd5190ebd0195ab061fe92fe0d446ec602e6991","amp;dn":"Shriyut+Gangadhar+Tipre+Marathi+Full+Series+Episodes","amp;tr":["udp%3A%2F%2Ftracker.openbittorrent.com%3A80","udp%3A%2F%2Fopen.demonii.com%3A1337","udp%3A%2F%2Ftracker.coppersurfer.tk%3A6969","udp%3A%2F%2Fexodus.desync.com%3A6969"],"infoHash":"0dd5190ebd0195ab061fe92fe0d446ec602e6991","infoHashBuffer":{"type":"Buffer","data":[13,213,25,14,189,1,149,171,6,31,233,47,224,212,70,236,96,46,105,145]},"announce":[],"urlList":[]}}